<?xml version="1.0" encoding="UTF-8"?>
<svg id="Layer_1" xmlns="http://www.w3.org/2000/svg" version="1.1" viewBox="0 0 463 213">
  <!-- Generator: Adobe Illustrator 29.5.0, SVG Export Plug-In . SVG Version: 2.1.0 Build 137)  -->
  <defs>
    <style>
      .st0 {
        fill: #eb2126;
      }

      .st1 {
        fill: #144a8f;
      }

      .st2 {
        fill: #fff;
      }

      .st3 {
        fill: #a62126;
      }

      .st4 {
        fill: #2494d1;
      }
    </style>
  </defs>
  <g>
    <path class="st2" d="M188.823,46.623h34.3v125.928c0,17.75-10.155,26.625-30.463,26.625h-32.142c-20.149,0-30.223-8.875-30.223-26.625V46.623h34.3v121.371c0,3.997,2.078,5.997,6.236,5.997h11.513c4.318,0,6.476-1.999,6.476-5.997V46.623Z"/>
    <path class="st2" d="M247.256,46.623h63.564c20.308,0,30.463,8.795,30.463,26.385v99.543c0,17.75-10.155,26.625-30.463,26.625h-63.564V46.623ZM306.982,169.673v-93.547c0-3.998-2.159-5.997-6.476-5.997h-18.949v105.54h18.949c4.318,0,6.476-1.999,6.476-5.997Z"/>
    <path class="st2" d="M416.203,167.994v-27.584c0-2.078-.48-3.518-1.439-4.318-.959-.959-2.639-1.439-5.037-1.439h-21.108c-18.869,0-28.304-8.955-28.304-26.865v-34.78c0-17.59,10.074-26.385,30.223-26.385h29.263c20.149,0,30.223,8.795,30.223,26.385v19.909h-34.3v-15.111c0-3.998-2.159-5.997-6.476-5.997h-8.155c-4.318,0-6.476,1.999-6.476,5.997v26.865c0,2.079.48,3.598,1.439,4.557.959.8,2.639,1.199,5.037,1.199h20.628c10.234,0,17.59,2.239,22.067,6.716,4.477,4.318,6.716,10.794,6.716,19.429v35.979c0,17.75-10.074,26.625-30.223,26.625h-29.023c-20.308,0-30.463-8.875-30.463-26.625v-19.669h34.3v15.111c0,3.997,2.159,5.997,6.476,5.997h8.155c4.318,0,6.476-1.999,6.476-5.997Z"/>
  </g>
  <path class="st2" d="M58.288,157.201l-7.121,16.768-1.206,16.516h16.522l3.216-1.812,9.313.325.143,4.404h17.309l1.245-4.404h13.074s-3.662-32.199-9.913-36.504c-23.731,16.119-42.588,4.723-42.588,4.723"/>
  <path class="st4" d="M101.188,176.001l.964,12.271h-4.588l3.624-12.271Z"/>
  <path class="st4" d="M55.832,161.826s14.363,8.577,31.584,0c13.768-6.843-29.128-4.625-29.128-4.625l-2.456,4.625Z"/>
  <path class="st0" d="M110.888,195.786h-14.038l.854-6.81h13.08s.138,4.591.116,6.81"/>
  <path class="st1" d="M110.887,197.982h-14.038c-.313.002-.623-.062-.909-.189-.286-.127-.542-.313-.75-.546-.208-.234-.365-.509-.458-.807-.094-.299-.123-.614-.085-.924l.87-6.788c.067-.535.329-1.027.735-1.382.406-.355.928-.549,1.468-.545h13.063c.572,0,1.122.222,1.533.62.411.397.651.939.67,1.511,0,0,.138,4.652.116,6.898-.013.577-.252,1.126-.666,1.529-.414.402-.97.626-1.548.623h0ZM99.322,193.578h9.362c0-.82-.033-1.651-.05-2.411h-8.988l-.325,2.411Z"/>
  <path class="st4" d="M106.103,154.162s9.72-12.844,24.97-9.265c15.25,3.578,19.232-5.461,19.232-5.461,0,0-7.578,27.723-26.986,20.077,0,0,2.98,2.499,5.728,4.905-5.822,4.178-11.103,6.661-21.55.374"/>
  <path class="st2" d="M105.722,155.033s8.916-13.097,21.401-10.179c12.485,2.917,20.008-.165,20.008-.165,0,0-8.691,17.792-22.58,9.567-2.418-1.728-5.656-1.343-7.237.859-1.58,2.202-.903,5.395,1.515,7.124-3.657,1.481-8.525-.408-11.136-2.147"/>
  <path class="st4" d="M62.318,159.061s1.526-3.925-4.026-1.861c-5.551,2.065-9.137,33.356-9.137,33.356h2.489c1.366,0,4.108-.259,4.015-1.619,0,0,.171-9.248.815-14.407,1.289-4.74,5.843-15.469,5.843-15.469Z"/>
  <path class="st2" d="M129.093,85.112c0,29.888-23.83,76.719-53.222,76.719S22.665,114.999,22.665,85.112s23.83-41.839,53.222-41.839,53.222,11.974,53.222,41.839"/>
  <path class="st1" d="M75.873,164.027c-30.593,0-55.408-47.751-55.408-78.916,0-27.999,20.201-44.041,55.425-44.041s55.419,16.064,55.419,44.041c-.016,31.165-24.843,78.916-55.436,78.916ZM75.873,45.448c-15.343,0-51.025,3.854-51.025,39.664,0,28.748,23.351,74.523,51.025,74.523s51.025-45.775,51.025-74.523c0-35.8-35.687-39.664-51.025-39.664h0Z"/>
  <path class="st4" d="M30.279,80.13s-5.232.837-7.804-.231c-3.459-1.437,2.159-5.753,2.159-5.753l5.645,5.984Z"/>
  <path class="st4" d="M88.67,74.553c0,6.661-4.406,8.885-12.667,12.023-9.362,0-28.247-5.362-28.247-12.023s20.619-12.067,29.981-12.067,10.915,5.401,10.915,12.067"/>
  <path class="st4" d="M83.907,134.536s-2.908-12.111,6.201-16.179c-1.724,4.657-5.276,14.764-3.051,18.332,2.225,3.567-3.15-2.153-3.15-2.153"/>
  <path class="st1" d="M75.873,164.027c-30.593,0-55.408-47.751-55.408-78.916,0-27.999,20.201-44.041,55.425-44.041s55.419,16.064,55.419,44.041c-.016,31.165-24.843,78.916-55.436,78.916ZM75.873,45.448c-15.343,0-51.025,3.854-51.025,39.664,0,28.748,23.351,74.523,51.025,74.523s51.025-45.775,51.025-74.523c0-35.8-35.687-39.664-51.025-39.664h0Z"/>
  <path class="st4" d="M58.839,95.571s2.974,12.662,22.855,14.561c1.333.126,2.12-1.508,1.404-2.637-.936-1.481-3.921-3.881-3.965-5.846,4.406.512,11.565,2.648,15.332.611.258-.142.472-.353.618-.609.145-.256.216-.548.205-.843-.011-.294-.105-.58-.269-.824-.165-.244-.394-.438-.663-.559-2.44-1.101-2.319-5.208-3.448-7.311"/>
  <path class="st2" d="M59.427,91.547s1.713,13.955,26.473,12.155c-1.47-1.905-3.035-3.947-3.101-6.722,4.912.55,11.119.699,14.247-2.962-2.919-.512-6.19-2.752-7.545-5.29"/>
  <path class="st1" d="M81.595,106.064c-22.343,0-24.281-13.636-24.359-14.247-.034-.558.146-1.108.504-1.538.357-.43.865-.709,1.419-.779.555-.07,1.116.074,1.569.402.453.328.764.816.87,1.365.072.49,1.779,10.405,20.002,10.405h.253c-.782-1.423-1.215-3.012-1.261-4.635-.004-.31.058-.618.181-.902s.306-.54.535-.749c.233-.21.509-.368.808-.463.299-.095.615-.125.927-.088,3.965.462,7.016.358,9.219-.319-1.952-1.133-3.575-2.755-4.709-4.707-.207-.503-.22-1.065-.037-1.577.183-.512.549-.938,1.028-1.197.479-.258,1.036-.331,1.565-.203s.992.447,1.299.896c1.013,1.894,3.701,3.766,5.986,4.167.38.069.736.237,1.031.487.295.25.519.573.65.936.131.364.163.755.094,1.136-.069.38-.237.736-.486,1.031-3.145,3.688-8.443,4.233-13.058,3.991.567,1.035,1.231,2.014,1.983,2.923.241.315.393.689.439,1.083.046.394-.015.793-.177,1.155-.162.362-.419.674-.743.902-.324.228-.704.365-1.1.395-1.546.092-3.024.136-4.433.132Z"/>
  <path class="st2" d="M92.311,72.103c0,4.349-7.358,12.348-16.439,12.348s-16.445-7.999-16.445-12.348,6.581-59.725,15.668-59.725,17.216,55.381,17.216,59.725"/>
  <path class="st1" d="M75.874,86.653c-10.111,0-18.642-8.935-18.642-14.55,0-.633,5.557-61.927,17.865-61.927,12.457,0,19.419,61.31,19.419,61.927,0,5.615-8.514,14.55-18.642,14.55ZM75.097,14.575c-5.645,0-13.465,48.874-13.465,57.528,0,2.945,6.163,10.151,14.242,10.151s14.242-7.206,14.242-10.151c0-1.96-2.027-16.812-5.155-31.016-5.683-25.769-9.825-26.513-9.863-26.513Z"/>
  <path class="st1" d="M85.752,150.005c.231,1.167-1.685-.06-3.668.331-1.983.39-3.304,2.257-3.514,1.101-.209-1.156.958-3.595,2.941-3.992,1.983-.396,4.009,1.399,4.241,2.571"/>
  <path class="st1" d="M66.173,150.005c-.231,1.167,1.685-.06,3.668.331,1.983.39,3.304,2.257,3.514,1.101s-.958-3.595-2.941-3.992c-1.983-.396-4.009,1.399-4.241,2.571"/>
  <path class="st2" d="M45.245,54.14s-12.997-6.43-25.014-5.659c-4.268,12.348.622,24.696,9.913,29.507"/>
  <path class="st1" d="M30.118,80.19c-.353-.002-.7-.087-1.013-.248-10.668-5.544-15.376-19.378-10.954-32.183.142-.409.402-.768.747-1.03.345-.262.759-.417,1.192-.445,12.49-.826,25.581,5.61,26.132,5.885.49.277.854.731,1.02,1.269.165.538.118,1.118-.131,1.623-.25.504-.683.894-1.21,1.089-.528.195-1.11.181-1.628-.039-.116-.055-11.565-5.615-22.409-5.505-2.93,10.35.909,21.09,9.269,25.433.435.229.781.596.983,1.044.202.448.248.95.132,1.427-.117.477-.389.902-.775,1.206-.386.304-.862.471-1.353.474h0Z"/>
  <path class="st4" d="M24.456,56.722c-.292,1.839.083,9.535,6.934,14.924.055.058.128.095.207.104.079.009.159-.01.225-.055s.114-.111.136-.187c.022-.076.016-.158-.017-.231-.432-1.192-.715-2.433-.843-3.694-.005-.074.01-.148.045-.214.035-.066.087-.12.152-.158.064-.037.138-.056.212-.053.074.002.146.026.208.067.628.424,1.399.721,2.891.407.111-.024.216-.074.304-.146.089-.072.159-.163.206-.267.047-.104.068-.217.063-.331-.005-.114-.037-.225-.093-.324-.336-.5-.57-1.061-.688-1.652-.015-.1-.007-.202.022-.299s.08-.186.148-.261c.068-.075.151-.135.245-.174.093-.039.194-.057.295-.053,2.61.094,4.648.418,6.278-.749"/>
  <path class="st2" d="M40.445,61.726c-4.507-2.108-9.268-3.624-14.165-4.509l14.165,4.509Z"/>
  <path class="st1" d="M40.446,63.923c-.338-.002-.671-.079-.975-.226-4.316-2.012-8.873-3.46-13.559-4.31-.556-.118-1.045-.447-1.364-.917-.319-.47-.444-1.045-.349-1.606.095-.56.404-1.062.86-1.4.457-.338,1.027-.487,1.59-.415,5.108.916,10.074,2.499,14.771,4.707.441.223.794.587,1.003,1.034.209.447.261.952.149,1.432-.112.481-.383.91-.769,1.218-.386.308-.864.478-1.358.482h0Z"/>
  <path class="st2" d="M106.493,54.14s13.003-6.43,25.02-5.659c4.268,12.348-.623,24.696-9.914,29.507"/>
  <path class="st1" d="M121.628,80.19c-.492-.002-.969-.167-1.356-.471-.386-.304-.66-.729-.777-1.206-.117-.477-.071-.98.131-1.429.201-.448.548-.816.983-1.045,8.349-4.344,12.204-15.084,9.274-25.423-10.91-.176-22.293,5.439-22.404,5.494-.518.221-1.1.235-1.628.039-.528-.195-.961-.585-1.21-1.089-.25-.504-.296-1.085-.131-1.623.165-.538.53-.992,1.02-1.269.551-.27,13.674-6.683,26.137-5.885.433.028.847.183,1.192.445.345.262.605.621.747,1.03,4.406,12.805-.286,26.639-10.96,32.183-.314.163-.664.248-1.018.248Z"/>
  <path class="st4" d="M127.304,56.722c.292,1.839-.082,9.535-6.933,14.924-.055.058-.128.095-.207.104-.079.009-.159-.01-.225-.055s-.115-.111-.136-.187c-.022-.076-.016-.158.017-.231.429-1.193.712-2.433.842-3.694.006-.074-.01-.148-.044-.214-.035-.066-.088-.12-.152-.158-.064-.037-.138-.056-.212-.053-.075.002-.147.026-.208.067-.628.424-1.399.721-2.892.407-.111-.024-.215-.074-.304-.146-.088-.072-.159-.163-.205-.267-.047-.104-.068-.217-.063-.331.005-.114.037-.225.093-.324.334-.501.568-1.062.689-1.652.014-.1.007-.202-.023-.299-.029-.097-.08-.186-.147-.261-.068-.075-.152-.135-.245-.174-.094-.039-.195-.057-.296-.053-2.61.094-4.648.418-6.278-.749"/>
  <path class="st2" d="M111.295,61.726c4.509-2.109,9.272-3.624,14.17-4.509l-14.17,4.509Z"/>
  <path class="st1" d="M111.3,63.923c-.494-.003-.973-.172-1.36-.48-.386-.308-.658-.737-.771-1.218-.113-.481-.061-.986.148-1.434.209-.448.562-.813,1.003-1.035,4.7-2.209,9.669-3.792,14.781-4.707.564-.072,1.134.077,1.591.415.456.338.764.84.86,1.4.095.56-.03,1.135-.349,1.606-.319.47-.808.799-1.364.917-4.687.851-9.246,2.299-13.564,4.31-.304.147-.637.224-.975.226h0Z"/>
  <path class="st2" d="M119.413,130.518c-5.601,12.112-16.627,18.927-24.629,15.233s-9.946-16.515-4.351-28.627c5.595-12.111,16.626-18.931,24.628-15.232,8.002,3.699,9.952,16.515,4.351,28.626Z"/>
  <path class="st1" d="M99.476,148.96c-1.937.009-3.853-.406-5.612-1.216-4.566-2.109-7.594-6.661-8.531-12.822-.887-5.824.22-12.474,3.106-18.717,6.102-13.212,18.466-20.501,27.536-16.306,9.07,4.195,11.521,18.348,5.424,31.539-2.891,6.242-7.242,11.39-12.253,14.489-3.244,2.015-6.548,3.033-9.671,3.033ZM110.435,103.103c-6.317,0-13.862,5.989-18.003,14.946-2.528,5.472-3.508,11.231-2.754,16.213.705,4.652,2.847,8.026,6.025,9.491,3.178,1.464,7.159.913,11.136-1.564,4.285-2.653,8.041-7.123,10.568-12.596,4.996-10.801,3.498-22.57-3.271-25.703-1.162-.529-2.425-.797-3.701-.787Z"/>
  <path class="st1" d="M108.162,123.797c.001,1.876-.554,3.71-1.596,5.27-1.042,1.561-2.523,2.777-4.257,3.496-1.733.719-3.641.908-5.482.543-1.841-.365-3.532-1.267-4.86-2.593-1.328-1.326-2.233-3.015-2.6-4.855-.367-1.84-.18-3.747.537-5.481.717-1.733,1.933-3.215,3.492-4.258,1.56-1.044,3.394-1.601,5.271-1.602,2.515,0,4.927,1,6.706,2.778,1.779,1.777,2.78,4.187,2.783,6.702"/>
  <path class="st2" d="M32.331,130.518c5.595,12.112,16.621,18.927,24.623,15.233,8.002-3.694,9.952-16.515,4.351-28.626-5.601-12.112-16.61-18.927-24.628-15.228-8.019,3.699-9.946,16.516-4.345,28.627"/>
  <path class="st1" d="M52.263,148.96c-3.123,0-6.427-1.018-9.676-3.033-5.012-3.099-9.362-8.258-12.254-14.489-6.097-13.213-3.668-27.339,5.425-31.539,9.093-4.2,21.445,3.116,27.536,16.306,2.886,6.243,3.987,12.893,3.101,18.717-.936,6.16-3.965,10.713-8.525,12.822-1.758.809-3.671,1.224-5.606,1.216h0ZM41.309,103.102c-1.278-.011-2.543.257-3.706.787-6.768,3.132-8.261,14.902-3.277,25.703,2.528,5.472,6.284,9.943,10.574,12.596,4.004,2.499,7.958,3.05,11.136,1.563,3.178-1.486,5.314-4.839,6.025-9.49.755-4.982-.22-10.741-2.754-16.213-4.147-8.957-11.681-14.946-17.998-14.946h0Z"/>
  <path class="st2" d="M32.331,130.518c5.595,12.112,16.621,18.927,24.623,15.233,8.002-3.694,9.952-16.515,4.351-28.626-5.601-12.112-16.61-18.927-24.628-15.228-8.019,3.699-9.946,16.516-4.345,28.627"/>
  <path class="st1" d="M52.263,148.96c-3.123,0-6.427-1.018-9.676-3.033-5.012-3.099-9.362-8.258-12.254-14.489-6.097-13.213-3.668-27.339,5.425-31.539,9.093-4.2,21.445,3.116,27.536,16.306,2.886,6.243,3.987,12.893,3.101,18.717-.936,6.16-3.965,10.713-8.525,12.822-1.758.809-3.671,1.224-5.606,1.216h0ZM41.309,103.102c-1.278-.011-2.543.257-3.706.787-6.768,3.132-8.261,14.902-3.277,25.703,2.528,5.472,6.284,9.943,10.574,12.596,4.004,2.499,7.958,3.05,11.136,1.563,3.178-1.486,5.314-4.839,6.025-9.49.755-4.982-.22-10.741-2.754-16.213-4.147-8.957-11.681-14.946-17.998-14.946h0Z"/>
  <path class="st1" d="M43.595,123.797c-.001,1.876.554,3.71,1.597,5.271,1.042,1.56,2.524,2.777,4.257,3.496s3.642.907,5.483.542c1.841-.366,3.532-1.268,4.86-2.595,1.328-1.326,2.232-3.016,2.599-4.856.367-1.84.179-3.748-.539-5.481-.718-1.734-1.934-3.216-3.495-4.258-1.561-1.043-3.395-1.599-5.272-1.599-2.516,0-4.928.998-6.708,2.776-1.779,1.778-2.78,4.189-2.781,6.704Z"/>
  <path class="st1" d="M62.6,123.797c.001,1.876-.555,3.711-1.597,5.271-1.042,1.561-2.524,2.778-4.258,3.496-1.734.719-3.642.907-5.484.541-1.841-.365-3.532-1.269-4.86-2.596-1.327-1.327-2.231-3.017-2.597-4.858-.366-1.84-.177-3.748.541-5.481.719-1.734,1.936-3.215,3.497-4.257,1.561-1.042,3.397-1.597,5.274-1.596,2.515,0,4.926,1.001,6.704,2.778,1.778,1.778,2.778,4.188,2.779,6.702"/>
  <path class="st2" d="M62.546,118.813c0,1.089-.323,2.154-.928,3.059-.605.905-1.465,1.611-2.472,2.027-1.006.417-2.114.526-3.182.314-1.068-.213-2.05-.737-2.82-1.507-.77-.77-1.295-1.751-1.507-2.819-.212-1.067-.104-2.174.313-3.18.417-1.006,1.123-1.866,2.028-2.471.906-.605,1.971-.928,3.06-.928,1.461,0,2.861.58,3.894,1.613,1.033,1.032,1.613,2.432,1.613,3.892Z"/>
  <path class="st4" d="M64.378,144.913c-1.375,1.705-2.061,3.864-1.922,6.05.139,2.185,1.091,4.24,2.671,5.758,2.313,2.202,7.374,3.507,9.968,3.733,0,0-18.912-1.244-25.278-10.57,2.754-2.841,9.913-6.705,12.05-9.43,2.137-2.725,6.669-8.021,9.687-5.368"/>
  <path class="st4" d="M68.547,134.382s3.613-20.567-12.077-26.452c3.382,7.613,10.381,24.173,7.027,30.383-3.354,6.209,5.05-3.931,5.05-3.931"/>
  <path class="st1" d="M75.861,164.027c-10.546,0-21.153-5.643-30.681-16.312-.165-.19-.299-.406-.397-.639-5.661-2.719-11.014-8.257-14.451-15.634-6.097-13.212-3.662-27.344,5.425-31.544,4.56-2.109,9.996-1.464,15.294,1.817,5.017,3.099,9.362,8.258,12.254,14.49,2.831,6.127,3.822,12.463,3.161,17.913,2.617-2.432,6.075-3.756,9.648-3.693,3.573.062,6.982,1.507,9.512,4.029l7.831,7.784c.37.42.567.964.551,1.523s-.245,1.091-.64,1.488c-.395.396-.925.628-1.485.648-.559.019-1.105-.175-1.526-.543l-7.837-7.789c-1.764-1.758-4.154-2.745-6.645-2.745s-4.88.987-6.645,2.745l-7.661,7.624c-.069.067-.143.13-.22.187-1.017.977-2.19,1.779-3.469,2.373-1.686.77-3.516,1.173-5.37,1.184,5.942,5.505,13.994,10.701,23.351,10.701.584,0,1.145.232,1.558.645.413.413.645.974.645,1.558s-.232,1.144-.645,1.557c-.413.413-.973.645-1.558.645v-.011ZM34.325,129.592c5.083,11.01,14.809,17.347,21.709,14.159,6.769-3.127,8.261-14.896,3.304-25.703-2.528-5.466-6.284-9.942-10.574-12.596-4.004-2.477-7.958-3.028-11.136-1.563-6.768,3.127-8.261,14.902-3.277,25.703h-.028Z"/>
  <path class="st1" d="M118.707,170.242c-3.304,0-6.774-.892-10.464-2.664-.502-.267-.881-.717-1.059-1.256-.178-.54-.14-1.127.105-1.639.245-.513.679-.911,1.211-1.111.532-.2,1.12-.187,1.643.036,6.978,3.336,11.675,2.467,15.278.551-1.9-1.652-3.464-2.945-3.47-2.945-.391-.337-.651-.801-.734-1.31-.084-.509.014-1.032.276-1.476.262-.445.673-.783,1.159-.956.486-.173,1.018-.17,1.502.009,4.125,1.652,7.804,1.586,11.24-.132,4.345-2.169,7.496-6.639,9.588-10.641-3.304,1.293-7.98,1.849-14.412.347-13.609-3.193-22.349,7.982-22.712,8.461-.361.44-.879.723-1.445.79-.566.067-1.135-.088-1.589-.432-.454-.344-.757-.851-.845-1.413-.088-.563.045-1.137.371-1.604.435-.551,10.772-13.939,27.228-10.085,13.112,3.071,16.582-3.936,16.725-4.234.233-.5.645-.895,1.155-1.106.51-.211,1.08-.223,1.599-.033.514.19.939.565,1.192,1.051.253.487.315,1.05.174,1.58-.177.65-4.461,15.965-15.057,21.244-2.056,1.044-4.307,1.646-6.609,1.767.19.233.33.502.412.79.082.289.104.591.064.889-.039.297-.138.584-.292.841-.154.258-.359.481-.602.657-3.745,2.692-7.567,4.024-11.632,4.024Z"/>
  <path class="st0" d="M67.975,192.059h-18.014v7.454h18.014v-7.454Z"/>
  <path class="st0" d="M95.88,195.4h-18.009v7.454h18.009v-7.454Z"/>
  <path class="st1" d="M86.579,203.824c-.584,0-1.145-.232-1.558-.645s-.645-.973-.645-1.557v-3.039c0-.584.232-1.144.645-1.557s.973-.645,1.558-.645,1.145.232,1.558.645c.413.413.645.973.645,1.557v3.039c0,.584-.232,1.144-.645,1.557-.413.413-.974.645-1.558.645h0Z"/>
  <path class="st3" d="M50.274,191.249s2.489,0,4.406-.11c.606-.027,1.041.788.81,1.536-.887,2.896-.121,5.236-.793,6.138-.804,1.063-5.292-.583-5.292-.583l.87-6.981Z"/>
  <path class="st3" d="M77.612,194.9s2.467-.325,4.356-.661c.595-.104,1.102.65.991,1.421-.512,2.984.551,5.208,0,6.188-.666,1.161-5.326.088-5.326.088l-.022-7.036Z"/>
  <path class="st0" d="M67.65,69.323s9.219,7.751,15.525,6.056c3.811-1.029-.215,7.157-14.991,5.103-15.376-2.147-7.407-17.82-7.407-17.82l6.873,6.661Z"/>
  <path class="st0" d="M69.67,53.265c1.057,2.499,9.092,6.276,14.682,5.957.369-.026.737.072,1.043.28.307.208.535.512.647.865,1.338,4.327,1.382,9.309.259,11.313-1.101,1.916-25.631-2.598-25.735-12.937-.105-10.339,4.037-10.542,4.037-10.542l5.067,5.065Z"/>
  <path class="st0" d="M69.831,35.984c.832,2.384,7.115,6.171,11.345,6.551.497.047.97.237,1.361.548.391.311.683.729.841,1.202,1.101,3.237,1.426,6.733,1.95,9.86.331,1.96-22.888-2.345-22.976-12.662-.088-10.317,3.304-10.542,3.304-10.542l4.174,5.043Z"/>
  <path class="st1" d="M83.633,73.755c-7.022,0-13.322-2.945-15.63-4.162-4.279-2.268-8.988-5.885-9.467-9.243-.051-.565.118-1.127.472-1.57.354-.443.865-.733,1.427-.809.562-.076,1.132.068,1.59.401.459.333.771.831.872,1.389.149.864,2.649,3.672,7.749,6.243,2.787,1.404,12.496,5.676,20.465,1.69.26-.149.548-.244.845-.278.298-.034.599-.007.886.079.287.086.553.23.783.423.229.193.417.431.551.698.134.268.213.56.23.859.017.299-.026.599-.129.88-.103.282-.261.539-.467.757-.206.218-.453.392-.729.511-2.94,1.439-6.177,2.169-9.45,2.131h0ZM82.35,57.239c-4.661-.096-9.23-1.318-13.317-3.562-3.712-1.965-7.815-5.12-8.217-8.081-.057-.567.108-1.135.461-1.582.353-.448.866-.742,1.431-.819.565-.078,1.138.067,1.599.403.461.336.773.838.871,1.399.204.738,2.605,3.358,7.424,5.555,2.825,1.288,10.045,3.958,16.054.941.516-.223,1.099-.241,1.628-.048.529.192.964.58,1.216,1.082.252.503.302,1.083.14,1.622-.162.539-.524.995-1.012,1.275-2.58,1.241-5.414,1.863-8.277,1.817h0Z"/>
  <path class="st0" d="M81.191,32.868c.109.451.04.926-.193,1.327-.233.401-.612.697-1.057.826-1.711.598-3.503.93-5.315.985-6.251.149-8.801-7.437-8.801-7.437,0,0,2.44-14.561,7.925-14.412,1.861.05,6.03,12.849,7.44,18.717"/>
  <path class="st1" d="M75.873,86.653c-10.111,0-18.642-8.935-18.642-14.55,0-.374,2.082-23.468,6.509-41.338.022-.201.072-.397.149-.583,2.798-11.082,6.51-20.006,11.207-20.006,12.457,0,19.419,61.31,19.419,61.927,0,5.615-8.514,14.55-18.642,14.55ZM67.133,35.847c-3.101,14.313-5.507,31.467-5.507,36.257,0,2.945,6.163,10.151,14.242,10.151s14.242-7.206,14.242-10.151c0-1.96-2.027-16.812-5.155-31.016-.066-.314-.138-.622-.204-.925-4.296,1.101-9.5.33-14.451-2.29-1.108-.59-2.167-1.267-3.167-2.026h0ZM68.262,30.892c.633.859,2.814,2.753,6.311,4.112,2.049.804,5.739,1.861,9.181.892-5.05-20.694-8.624-21.316-8.657-21.316-2.148-.005-4.61,7.069-6.834,16.306v.005Z"/>
  <path class="st2" d="M108.1,118.813c0,1.089-.323,2.154-.928,3.059-.605.905-1.465,1.611-2.472,2.027-1.006.417-2.114.526-3.182.314-1.068-.213-2.05-.737-2.82-1.507-.77-.77-1.295-1.751-1.507-2.819-.213-1.067-.103-2.174.313-3.18.417-1.006,1.123-1.866,2.028-2.471.906-.605,1.97-.928,3.06-.928,1.461,0,2.861.58,3.894,1.613,1.033,1.032,1.613,2.432,1.613,3.892Z"/>
  <path class="st4" d="M75.959,169.46l.193-.473c1.933-.369,4.764.914,5.54,2.719l2.473,7.201c.333.974.377,2.024.127,3.022l-2.858,11.467-1.074-13.069-4.4-10.867Z"/>
  <path class="st1" d="M58.546,201.391c-.584,0-1.145-.232-1.558-.645-.413-.413-.645-.973-.645-1.557v-2.703c0-.584.232-1.144.645-1.557.413-.413.973-.645,1.558-.645s1.145.232,1.558.645c.413.413.645.973.645,1.557v2.703c0,.584-.232,1.144-.645,1.557-.413.413-.973.645-1.558.645ZM66.477,192.686h-16.522c-.584,0-1.145-.232-1.558-.645-.413-.413-.645-.973-.645-1.557s.232-1.144.645-1.557c.413-.413.973-.645,1.558-.645h16.522c.584,0,1.145.232,1.558.645.413.413.645.973.645,1.557s-.232,1.144-.645,1.557c-.413.413-.973.645-1.558.645Z"/>
  <path class="st1" d="M94.813,195.583h-15.663c-.584,0-1.145-.232-1.558-.645-.413-.413-.645-.973-.645-1.557s.232-1.144.645-1.557c.413-.413.973-.645,1.558-.645h15.663c.584,0,1.145.232,1.558.645.413.413.645.973.645,1.557s-.232,1.144-.645,1.557c-.413.413-.973.645-1.558.645Z"/>
  <path class="st4" d="M77.337,172.257c2.021,2.02,5.54,7.602,4.086,9.05-1.454,1.448-6.058.143-8.063-1.877-2.005-2.021-2.671-4.746-1.217-6.193,2.979,1.227,3.172-3.001,5.193-.98"/>
  <path class="st1" d="M66.278,201.71h-16.808c-.301,0-.599-.061-.876-.18-.277-.12-.526-.294-.732-.514-.206-.22-.365-.48-.466-.764s-.143-.586-.123-.887l1.696-25.549c.016-.215.062-.426.138-.628l6.68-17.798c.225-.519.64-.931,1.161-1.152.521-.221,1.106-.234,1.636-.035.529.199.962.594,1.208,1.103.246.509.287,1.093.114,1.631l-6.565,17.479-1.52,22.901h12.303l.314-14.203c.008-.291.073-.577.193-.843l3.855-8.604c.108-.278.271-.531.48-.744.209-.212.459-.381.734-.494.276-.114.572-.17.87-.166.298.004.592.069.865.19.272.122.517.297.72.515.203.219.359.477.459.757.1.281.142.579.124.877-.019.297-.097.588-.231.854l-3.651,8.197-.352,15.91c-.014.578-.256,1.128-.672,1.529-.416.402-.974.624-1.553.618Z"/>
  <path class="st0" d="M78.998,188.977h-11.362v6.804h11.362v-6.804Z"/>
  <path class="st1" d="M79.006,197.982h-11.361c-.584,0-1.145-.232-1.558-.645-.413-.413-.645-.973-.645-1.557v-6.804c0-.584.232-1.144.645-1.557.413-.413.973-.645,1.558-.645h11.361c.584,0,1.145.232,1.558.645.413.413.645.973.645,1.557v6.809c-.002.584-.234,1.142-.647,1.554-.413.412-.972.643-1.556.643ZM69.842,193.578h6.961v-2.411h-6.961v2.411Z"/>
  <path class="st1" d="M95.192,203.818h-16.808c-.307.001-.61-.062-.891-.185-.281-.122-.533-.303-.741-.529-.207-.226-.365-.492-.464-.783-.098-.29-.135-.598-.107-.903l1.922-20.744-3.855-8.747c-.207-.531-.201-1.121.018-1.646.219-.526.633-.946,1.155-1.174.522-.227,1.112-.243,1.646-.045.534.199.97.596,1.218,1.109l4.048,9.265c.154.345.212.725.171,1.101l-1.746,18.91h12.502l3.629-23.672c.032-.296.124-.582.269-.841.146-.26.342-.487.578-.668.236-.181.506-.313.794-.387.288-.074.588-.089.882-.044.294.045.576.149.829.306s.471.363.642.607c.171.243.29.519.352.81s.063.591.005.883l-2.572,17.165c.106-.006.213-.006.32,0h2.803c.139-.449.419-.841.797-1.12.379-.279.836-.429,1.306-.429s.928.15,1.306.429c.379.279.658.671.797,1.12h2.699c-.408-32.221-9.72-40.908-9.819-40.991-.435-.385-.701-.926-.739-1.505-.038-.579.154-1.151.535-1.589.378-.433.91-.702,1.483-.748.573-.046,1.142.133,1.584.5.463.397,11.367,10.036,11.367,46.529,0,.584-.232,1.144-.645,1.557-.413.413-.973.645-1.558.645h-11.94c-.331,0-.659-.073-.958-.214l-.639,4.184c-.085.515-.35.983-.749,1.321-.398.338-.904.523-1.426.523h0ZM72.75,196.915c-.584,0-1.145-.232-1.558-.645-.413-.413-.645-.973-.645-1.557v-.479c0-.584.232-1.144.645-1.557.413-.413.973-.645,1.558-.645s1.145.232,1.558.645c.413.413.645.973.645,1.557v.49c-.003.582-.236,1.14-.649,1.55-.413.411-.972.641-1.554.641h0Z"/>
  <path class="st2" d="M58.288,157.201l-7.121,16.768-1.206,16.516h16.522l3.216-1.812,9.313.325.143,4.404h17.309l1.245-4.404h13.074s-3.662-32.199-9.913-36.504c-23.731,16.119-42.588,4.723-42.588,4.723"/>
  <path class="st4" d="M101.188,176.001l.964,12.271h-4.588l3.624-12.271Z"/>
  <path class="st4" d="M55.832,161.826s14.363,8.577,31.584,0c13.768-6.843-29.128-4.625-29.128-4.625l-2.456,4.625Z"/>
  <path class="st0" d="M110.888,195.786h-14.038l.854-6.81h13.08s.138,4.591.116,6.81"/>
  <path class="st1" d="M110.887,197.982h-14.038c-.313.002-.623-.062-.909-.189-.286-.127-.542-.313-.75-.546-.208-.234-.365-.509-.458-.807-.094-.299-.123-.614-.085-.924l.87-6.788c.067-.535.329-1.027.735-1.382.406-.355.928-.549,1.468-.545h13.063c.572,0,1.122.222,1.533.62.411.397.651.939.67,1.511,0,0,.138,4.652.116,6.898-.013.577-.252,1.126-.666,1.529-.414.402-.97.626-1.548.623h0ZM99.322,193.578h9.362c0-.82-.033-1.651-.05-2.411h-8.988l-.325,2.411Z"/>
  <path class="st4" d="M106.103,154.162s9.72-12.844,24.97-9.265c15.25,3.578,19.232-5.461,19.232-5.461,0,0-7.578,27.723-26.986,20.077,0,0,2.98,2.499,5.728,4.905-5.822,4.178-11.103,6.661-21.55.374"/>
  <path class="st2" d="M104.786,156.354s9.853-14.418,22.337-11.5c12.485,2.917,20.008-.165,20.008-.165,0,0-8.69,17.792-22.579,9.567-2.418-1.728-5.656-1.343-7.237.859-1.581,2.202-.903,5.395,1.515,7.124-3.657,1.481-8.526-.408-11.136-2.147"/>
  <path class="st4" d="M62.318,159.061s1.526-3.925-4.026-1.861c-5.551,2.065-9.137,33.356-9.137,33.356h2.489c1.366,0,4.108-.259,4.015-1.619,0,0,.171-9.248.815-14.407,1.289-4.74,5.843-15.469,5.843-15.469Z"/>
  <path class="st2" d="M129.093,85.112c0,29.888-23.83,76.719-53.222,76.719S22.665,114.999,22.665,85.112s23.83-41.839,53.222-41.839,53.222,11.974,53.222,41.839"/>
  <path class="st1" d="M75.873,164.027c-30.593,0-55.408-47.751-55.408-78.916,0-27.999,20.201-44.041,55.425-44.041s55.419,16.064,55.419,44.041c-.016,31.165-24.843,78.916-55.436,78.916ZM75.873,45.448c-15.343,0-51.025,3.854-51.025,39.664,0,28.748,23.351,74.523,51.025,74.523s51.025-45.775,51.025-74.523c0-35.8-35.687-39.664-51.025-39.664h0Z"/>
  <path class="st4" d="M30.279,80.13s-5.232.837-7.804-.231c-3.459-1.437,2.159-5.753,2.159-5.753l5.645,5.984Z"/>
  <path class="st4" d="M88.67,74.553c0,6.661-4.406,8.885-12.667,12.023-9.362,0-28.247-5.362-28.247-12.023s20.619-12.067,29.981-12.067,10.915,5.401,10.915,12.067"/>
  <path class="st4" d="M83.907,134.536s-2.908-12.111,6.201-16.179c-1.724,4.657-5.276,14.764-3.051,18.332,2.225,3.567-3.15-2.153-3.15-2.153"/>
  <path class="st1" d="M75.873,164.027c-30.593,0-55.408-47.751-55.408-78.916,0-27.999,20.201-44.041,55.425-44.041s55.419,16.064,55.419,44.041c-.016,31.165-24.843,78.916-55.436,78.916ZM75.873,45.448c-15.343,0-51.025,3.854-51.025,39.664,0,28.748,23.351,74.523,51.025,74.523s51.025-45.775,51.025-74.523c0-35.8-35.687-39.664-51.025-39.664h0Z"/>
  <path class="st4" d="M58.839,95.571s2.974,12.662,22.855,14.561c1.333.126,2.12-1.508,1.404-2.637-.936-1.481-3.921-3.881-3.965-5.846,4.406.512,11.565,2.648,15.332.611.258-.142.472-.353.618-.609.145-.256.216-.548.205-.843-.011-.294-.105-.58-.269-.824-.165-.244-.394-.438-.663-.559-2.44-1.101-2.319-5.208-3.448-7.311"/>
  <path class="st2" d="M59.427,91.547s1.713,13.955,26.473,12.155c-1.47-1.905-3.035-3.947-3.101-6.722,4.912.55,11.119.699,14.247-2.962-2.919-.512-6.19-2.752-7.545-5.29"/>
  <path class="st1" d="M81.595,106.064c-22.343,0-24.281-13.636-24.359-14.247-.034-.558.146-1.108.504-1.538.357-.43.865-.709,1.419-.779.555-.07,1.116.074,1.569.402.453.328.764.816.87,1.365.072.49,1.779,10.405,20.002,10.405h.253c-.782-1.423-1.215-3.012-1.261-4.635-.004-.31.058-.618.181-.902s.306-.54.535-.749c.233-.21.509-.368.808-.463.299-.095.615-.125.927-.088,3.965.462,7.016.358,9.219-.319-1.952-1.133-3.575-2.755-4.709-4.707-.207-.503-.22-1.065-.037-1.577.183-.512.549-.938,1.028-1.197.479-.258,1.036-.331,1.565-.203s.992.447,1.299.896c1.013,1.894,3.701,3.766,5.986,4.167.38.069.736.237,1.031.487.295.25.519.573.65.936.131.364.163.755.094,1.136-.069.38-.237.736-.486,1.031-3.145,3.688-8.443,4.233-13.058,3.991.567,1.035,1.231,2.014,1.983,2.923.241.315.393.689.439,1.083.046.394-.015.793-.177,1.155-.162.362-.419.674-.743.902-.324.228-.704.365-1.1.395-1.546.092-3.024.136-4.433.132Z"/>
  <path class="st2" d="M92.311,72.103c0,4.349-7.358,12.348-16.439,12.348s-16.445-7.999-16.445-12.348,6.581-59.725,15.668-59.725,17.216,55.381,17.216,59.725"/>
  <path class="st1" d="M75.874,86.653c-10.111,0-18.642-8.935-18.642-14.55,0-.633,5.557-61.927,17.865-61.927,12.457,0,19.419,61.31,19.419,61.927,0,5.615-8.514,14.55-18.642,14.55ZM75.097,14.575c-5.645,0-13.465,48.874-13.465,57.528,0,2.945,6.163,10.151,14.242,10.151s14.242-7.206,14.242-10.151c0-1.96-2.027-16.812-5.155-31.016-5.683-25.769-9.825-26.513-9.863-26.513Z"/>
  <path class="st1" d="M85.752,150.005c.231,1.167-1.685-.06-3.668.331-1.983.39-3.304,2.257-3.514,1.101-.209-1.156.958-3.595,2.941-3.992,1.983-.396,4.009,1.399,4.241,2.571"/>
  <path class="st1" d="M66.173,150.005c-.231,1.167,1.685-.06,3.668.331,1.983.39,3.304,2.257,3.514,1.101s-.958-3.595-2.941-3.992c-1.983-.396-4.009,1.399-4.241,2.571"/>
  <path class="st2" d="M45.245,54.14s-12.997-6.43-25.014-5.659c-4.268,12.348.622,24.696,9.913,29.507"/>
  <path class="st1" d="M30.118,80.19c-.353-.002-.7-.087-1.013-.248-10.668-5.544-15.376-19.378-10.954-32.183.142-.409.402-.768.747-1.03.345-.262.759-.417,1.192-.445,12.49-.826,25.581,5.61,26.132,5.885.49.277.854.731,1.02,1.269.165.538.118,1.118-.131,1.623-.25.504-.683.894-1.21,1.089-.528.195-1.11.181-1.628-.039-.116-.055-11.565-5.615-22.409-5.505-2.93,10.35.909,21.09,9.269,25.433.435.229.781.596.983,1.044.202.448.248.95.132,1.427-.117.477-.389.902-.775,1.206-.386.304-.862.471-1.353.474h0Z"/>
  <path class="st4" d="M24.456,56.722c-.292,1.839.083,9.535,6.934,14.924.055.058.128.095.207.104.079.009.159-.01.225-.055s.114-.111.136-.187c.022-.076.016-.158-.017-.231-.432-1.192-.715-2.433-.843-3.694-.005-.074.01-.148.045-.214.035-.066.087-.12.152-.158.064-.037.138-.056.212-.053.074.002.146.026.208.067.628.424,1.399.721,2.891.407.111-.024.216-.074.304-.146.089-.072.159-.163.206-.267.047-.104.068-.217.063-.331-.005-.114-.037-.225-.093-.324-.336-.5-.57-1.061-.688-1.652-.015-.1-.007-.202.022-.299s.08-.186.148-.261c.068-.075.151-.135.245-.174.093-.039.194-.057.295-.053,2.61.094,4.648.418,6.278-.749"/>
  <path class="st2" d="M40.445,61.726c-4.507-2.108-9.268-3.624-14.165-4.509l14.165,4.509Z"/>
  <path class="st1" d="M40.446,63.923c-.338-.002-.671-.079-.975-.226-4.316-2.012-8.873-3.46-13.559-4.31-.556-.118-1.045-.447-1.364-.917-.319-.47-.444-1.045-.349-1.606.095-.56.404-1.062.86-1.4.457-.338,1.027-.487,1.59-.415,5.108.916,10.074,2.499,14.771,4.707.441.223.794.587,1.003,1.034.209.447.261.952.149,1.432-.112.481-.383.91-.769,1.218-.386.308-.864.478-1.358.482h0Z"/>
  <path class="st2" d="M106.493,54.14s13.003-6.43,25.02-5.659c4.268,12.348-.623,24.696-9.914,29.507"/>
  <path class="st1" d="M121.628,80.19c-.492-.002-.969-.167-1.356-.471-.386-.304-.66-.729-.777-1.206-.117-.477-.071-.98.131-1.429.201-.448.548-.816.983-1.045,8.349-4.344,12.204-15.084,9.274-25.423-10.91-.176-22.293,5.439-22.404,5.494-.518.221-1.1.235-1.628.039-.528-.195-.961-.585-1.21-1.089-.25-.504-.296-1.085-.131-1.623.165-.538.53-.992,1.02-1.269.551-.27,13.674-6.683,26.137-5.885.433.028.847.183,1.192.445.345.262.605.621.747,1.03,4.406,12.805-.286,26.639-10.96,32.183-.314.163-.664.248-1.018.248Z"/>
  <path class="st4" d="M127.304,56.722c.292,1.839-.082,9.535-6.933,14.924-.055.058-.128.095-.207.104-.079.009-.159-.01-.225-.055s-.115-.111-.136-.187c-.022-.076-.016-.158.017-.231.429-1.193.712-2.433.842-3.694.006-.074-.01-.148-.044-.214-.035-.066-.088-.12-.152-.158-.064-.037-.138-.056-.212-.053-.075.002-.147.026-.208.067-.628.424-1.399.721-2.892.407-.111-.024-.215-.074-.304-.146-.088-.072-.159-.163-.205-.267-.047-.104-.068-.217-.063-.331.005-.114.037-.225.093-.324.334-.501.568-1.062.689-1.652.014-.1.007-.202-.023-.299-.029-.097-.08-.186-.147-.261-.068-.075-.152-.135-.245-.174-.094-.039-.195-.057-.296-.053-2.61.094-4.648.418-6.278-.749"/>
  <path class="st2" d="M111.295,61.726c4.509-2.109,9.272-3.624,14.17-4.509l-14.17,4.509Z"/>
  <path class="st1" d="M111.3,63.923c-.494-.003-.973-.172-1.36-.48-.386-.308-.658-.737-.771-1.218-.113-.481-.061-.986.148-1.434.209-.448.562-.813,1.003-1.035,4.7-2.209,9.669-3.792,14.781-4.707.564-.072,1.134.077,1.591.415.456.338.764.84.86,1.4.095.56-.03,1.135-.349,1.606-.319.47-.808.799-1.364.917-4.687.851-9.246,2.299-13.564,4.31-.304.147-.637.224-.975.226h0Z"/>
  <path class="st2" d="M119.413,130.518c-5.601,12.112-16.627,18.927-24.629,15.233s-9.946-16.515-4.351-28.627c5.595-12.111,16.626-18.931,24.628-15.232,8.002,3.699,9.952,16.515,4.351,28.626Z"/>
  <path class="st1" d="M99.476,148.96c-1.937.009-3.853-.406-5.612-1.216-4.566-2.109-7.594-6.661-8.531-12.822-.887-5.824.22-12.474,3.106-18.717,6.102-13.212,18.466-20.501,27.536-16.306,9.07,4.195,11.521,18.348,5.424,31.539-2.891,6.242-7.242,11.39-12.253,14.489-3.244,2.015-6.548,3.033-9.671,3.033ZM110.435,103.103c-6.317,0-13.862,5.989-18.003,14.946-2.528,5.472-3.508,11.231-2.754,16.213.705,4.652,2.847,8.026,6.025,9.491,3.178,1.464,7.159.913,11.136-1.564,4.285-2.653,8.041-7.123,10.568-12.596,4.996-10.801,3.498-22.57-3.271-25.703-1.162-.529-2.425-.797-3.701-.787Z"/>
  <path class="st2" d="M32.331,130.518c5.595,12.112,16.621,18.927,24.623,15.233,8.002-3.694,9.952-16.515,4.351-28.626-5.601-12.112-16.61-18.927-24.628-15.228-8.019,3.699-9.946,16.516-4.345,28.627"/>
  <path class="st1" d="M52.263,148.96c-3.123,0-6.427-1.018-9.676-3.033-5.012-3.099-9.362-8.258-12.254-14.489-6.097-13.213-3.668-27.339,5.425-31.539,9.093-4.2,21.445,3.116,27.536,16.306,2.886,6.243,3.987,12.893,3.101,18.717-.936,6.16-3.965,10.713-8.525,12.822-1.758.809-3.671,1.224-5.606,1.216h0ZM41.309,103.102c-1.278-.011-2.543.257-3.706.787-6.768,3.132-8.261,14.902-3.277,25.703,2.528,5.472,6.284,9.943,10.574,12.596,4.004,2.499,7.958,3.05,11.136,1.563,3.178-1.486,5.314-4.839,6.025-9.49.755-4.982-.22-10.741-2.754-16.213-4.147-8.957-11.681-14.946-17.998-14.946h0Z"/>
  <path class="st2" d="M32.331,130.518c5.595,12.112,16.621,18.927,24.623,15.233,8.002-3.694,9.952-16.515,4.351-28.626-5.601-12.112-16.61-18.927-24.628-15.228-8.019,3.699-9.946,16.516-4.345,28.627"/>
  <path class="st1" d="M52.263,148.96c-3.123,0-6.427-1.018-9.676-3.033-5.012-3.099-9.362-8.258-12.254-14.489-6.097-13.213-3.668-27.339,5.425-31.539,9.093-4.2,21.445,3.116,27.536,16.306,2.886,6.243,3.987,12.893,3.101,18.717-.936,6.16-3.965,10.713-8.525,12.822-1.758.809-3.671,1.224-5.606,1.216h0ZM41.309,103.102c-1.278-.011-2.543.257-3.706.787-6.768,3.132-8.261,14.902-3.277,25.703,2.528,5.472,6.284,9.943,10.574,12.596,4.004,2.499,7.958,3.05,11.136,1.563,3.178-1.486,5.314-4.839,6.025-9.49.755-4.982-.22-10.741-2.754-16.213-4.147-8.957-11.681-14.946-17.998-14.946h0Z"/>
  <path class="st1" d="M62.087,121.015c-.338.771-.849,1.454-1.492,1.997-.643.542-1.403.93-2.22,1.134-.817.203-1.669.217-2.493.04-.823-.178-1.594-.541-2.255-1.063-.66-.522-1.192-1.188-1.555-1.948-.363-.759-.546-1.592-.537-2.433.01-.842.212-1.67.592-2.421.38-.751.927-1.405,1.599-1.912-.22,0-.43-.066-.655-.066-2.044-.035-4.046.58-5.718,1.757-1.672,1.176-2.926,2.852-3.583,4.787-.657,1.935-.682,4.029-.072,5.979.61,1.95,1.824,3.656,3.467,4.872,1.643,1.216,3.63,1.879,5.674,1.893,2.044.015,4.04-.62,5.7-1.813,1.66-1.193,2.898-2.882,3.535-4.823.638-1.942.642-4.036.012-5.98h0Z"/>
  <path class="st4" d="M64.378,144.913c-1.375,1.705-2.061,3.864-1.922,6.05.139,2.185,1.091,4.24,2.671,5.758,2.313,2.202,7.374,3.507,9.968,3.733,0,0-18.912-1.244-25.278-10.57,2.754-2.841,9.913-6.705,12.05-9.43,2.137-2.725,6.669-8.021,9.687-5.368"/>
  <path class="st4" d="M68.547,134.382s3.613-20.567-12.077-26.452c3.382,7.613,10.381,24.173,7.027,30.383-3.354,6.209,5.05-3.931,5.05-3.931"/>
  <path class="st1" d="M75.861,164.027c-10.546,0-21.153-5.643-30.681-16.312-.165-.19-.299-.406-.397-.639-5.661-2.719-11.014-8.257-14.451-15.634-6.097-13.212-3.662-27.344,5.425-31.544,4.56-2.109,9.996-1.464,15.294,1.817,5.017,3.099,9.362,8.258,12.254,14.49,2.831,6.127,3.822,12.463,3.161,17.913,2.617-2.432,6.075-3.756,9.648-3.693,3.573.062,6.982,1.507,9.512,4.029l7.831,7.784c.37.42.567.964.551,1.523s-.245,1.091-.64,1.488c-.395.396-.925.628-1.485.648-.559.019-1.105-.175-1.526-.543l-7.837-7.789c-1.764-1.758-4.154-2.745-6.645-2.745s-4.88.987-6.645,2.745l-7.661,7.624c-.069.067-.143.13-.22.187-1.017.977-2.19,1.779-3.469,2.373-1.686.77-3.516,1.173-5.37,1.184,5.942,5.505,13.994,10.701,23.351,10.701.584,0,1.145.232,1.558.645.413.413.645.974.645,1.558s-.232,1.144-.645,1.557c-.413.413-.973.645-1.558.645v-.011ZM34.325,129.592c5.083,11.01,14.809,17.347,21.709,14.159,6.769-3.127,8.261-14.896,3.304-25.703-2.528-5.466-6.284-9.942-10.574-12.596-4.004-2.477-7.958-3.028-11.136-1.563-6.768,3.127-8.261,14.902-3.277,25.703h-.028Z"/>
  <path class="st1" d="M118.274,170.1c-3.944-.059-7.824-1-11.356-2.753-.495-.269-.868-.718-1.042-1.254-.174-.537-.135-1.119.107-1.628.243-.508.672-.905,1.198-1.107.526-.202,1.11-.195,1.631.02,5.915,2.824,11.676,3.056,16.522.727-1.878-1.608-3.403-2.896-3.409-2.896-.391-.337-.651-.8-.734-1.31-.084-.509.014-1.031.276-1.475.262-.445.673-.783,1.159-.956s1.018-.17,1.502.009c4.125,1.651,7.804,1.585,11.24-.132,4.345-2.169,7.496-6.639,9.588-10.642-3.304,1.294-7.98,1.85-14.412.347-13.664-3.209-23.951,9.53-24.05,9.656-.373.423-.893.687-1.455.738-.561.051-1.121-.116-1.563-.465s-.734-.855-.815-1.412c-.081-.558.055-1.125.38-1.586.485-.616,12.083-15.067,28.511-11.214,13.112,3.072,16.582-3.936,16.725-4.233.233-.5.645-.895,1.155-1.106.51-.211,1.081-.223,1.599-.034.514.19.94.565,1.192,1.052.253.487.315,1.05.174,1.58-.177.649-4.461,15.964-15.057,21.244-2.056,1.043-4.307,1.645-6.609,1.767.19.233.33.501.412.79.082.289.104.591.064.888-.039.298-.138.584-.292.842-.154.257-.359.481-.602.656-3.5,2.538-7.716,3.898-12.039,3.887h0Z"/>
  <path class="st0" d="M67.975,192.059h-18.014v7.454h18.014v-7.454Z"/>
  <path class="st0" d="M95.88,195.4h-18.009v7.454h18.009v-7.454Z"/>
  <path class="st1" d="M86.579,203.824c-.584,0-1.145-.232-1.558-.645s-.645-.973-.645-1.557v-3.039c0-.584.232-1.144.645-1.557s.973-.645,1.558-.645,1.145.232,1.558.645c.413.413.645.973.645,1.557v3.039c0,.584-.232,1.144-.645,1.557-.413.413-.974.645-1.558.645h0Z"/>
  <path class="st3" d="M50.274,191.249s2.489,0,4.406-.11c.606-.027,1.041.788.81,1.536-.887,2.896-.121,5.236-.793,6.138-.804,1.063-5.292-.583-5.292-.583l.87-6.981Z"/>
  <path class="st3" d="M77.612,194.9s2.467-.325,4.356-.661c.595-.104,1.102.65.991,1.421-.512,2.984.551,5.208,0,6.188-.666,1.161-5.326.088-5.326.088l-.022-7.036Z"/>
  <path class="st0" d="M67.65,69.323s9.219,7.751,15.525,6.056c3.811-1.029-.215,7.157-14.991,5.103-15.376-2.147-7.407-17.82-7.407-17.82l6.873,6.661Z"/>
  <path class="st0" d="M69.67,53.265c1.057,2.499,9.092,6.276,14.682,5.957.369-.026.737.072,1.043.28.307.208.535.512.647.865,1.338,4.327,1.382,9.309.259,11.313-1.101,1.916-25.631-2.598-25.735-12.937-.105-10.339,4.037-10.542,4.037-10.542l5.067,5.065Z"/>
  <path class="st0" d="M69.831,35.984c.832,2.384,7.115,6.171,11.345,6.551.497.047.97.237,1.361.548.391.311.683.729.841,1.202,1.101,3.237,1.426,6.733,1.95,9.86.331,1.96-22.888-2.345-22.976-12.662-.088-10.317,3.304-10.542,3.304-10.542l4.174,5.043Z"/>
  <path class="st1" d="M83.633,73.755c-7.022,0-13.322-2.945-15.63-4.162-4.279-2.268-8.988-5.885-9.467-9.243-.051-.565.118-1.127.472-1.57.354-.443.865-.733,1.427-.809.562-.076,1.132.068,1.59.401.459.333.771.831.872,1.389.149.864,2.649,3.672,7.749,6.243,2.787,1.404,12.496,5.676,20.465,1.69.26-.149.548-.244.845-.278.298-.034.599-.007.886.079.287.086.553.23.783.423.229.193.417.431.551.698.134.268.213.56.23.859.017.299-.026.599-.129.88-.103.282-.261.539-.467.757-.206.218-.453.392-.729.511-2.94,1.439-6.177,2.169-9.45,2.131h0ZM82.35,57.239c-4.661-.096-9.23-1.318-13.317-3.562-3.712-1.965-7.815-5.12-8.217-8.081-.057-.567.108-1.135.461-1.582.353-.448.866-.742,1.431-.819.565-.078,1.138.067,1.599.403.461.336.773.838.871,1.399.204.738,2.605,3.358,7.424,5.555,2.825,1.288,10.045,3.958,16.054.941.516-.223,1.099-.241,1.628-.048.529.192.964.58,1.216,1.082.252.503.302,1.083.14,1.622-.162.539-.524.995-1.012,1.275-2.58,1.241-5.414,1.863-8.277,1.817h0Z"/>
  <path class="st0" d="M81.191,32.868c.109.451.04.926-.193,1.327-.233.401-.612.697-1.057.826-1.711.598-3.503.93-5.315.985-6.251.149-8.801-7.437-8.801-7.437,0,0,2.44-14.561,7.925-14.412,1.861.05,6.03,12.849,7.44,18.717"/>
  <path class="st1" d="M75.873,86.653c-10.111,0-18.642-8.935-18.642-14.55,0-.374,2.082-23.468,6.509-41.338.022-.201.072-.397.149-.583,2.798-11.082,6.51-20.006,11.207-20.006,12.457,0,19.419,61.31,19.419,61.927,0,5.615-8.514,14.55-18.642,14.55ZM67.133,35.847c-3.101,14.313-5.507,31.467-5.507,36.257,0,2.945,6.163,10.151,14.242,10.151s14.242-7.206,14.242-10.151c0-1.96-2.027-16.812-5.155-31.016-.066-.314-.138-.622-.204-.925-4.296,1.101-9.5.33-14.451-2.29-1.108-.59-2.167-1.267-3.167-2.026h0ZM68.262,30.892c.633.859,2.814,2.753,6.311,4.112,2.049.804,5.739,1.861,9.181.892-5.05-20.694-8.624-21.316-8.657-21.316-2.148-.005-4.61,7.069-6.834,16.306v.005Z"/>
  <path class="st1" d="M107.671,120.939c-.332.775-.838,1.465-1.479,2.014-.641.549-1.399.944-2.217,1.154-.818.209-1.673.228-2.499.055-.826-.173-1.602-.534-2.266-1.055-.664-.52-1.2-1.187-1.566-1.947-.366-.761-.552-1.595-.544-2.439.008-.844.21-1.674.591-2.428.381-.753.929-1.409,1.604-1.917-.209,0-.408-.06-.622-.06-1.877,0-3.712.556-5.272,1.599-1.561,1.042-2.777,2.524-3.495,4.258-.718,1.733-.906,3.641-.539,5.481.367,1.84,1.271,3.53,2.598,4.856,1.328,1.327,3.019,2.229,4.86,2.595,1.841.365,3.749.177,5.483-.542s3.215-1.936,4.257-3.496c1.042-1.561,1.598-3.395,1.596-5.271-.013-.973-.178-1.937-.49-2.857h0Z"/>
  <path class="st4" d="M75.959,169.46l.193-.473c1.933-.369,4.764.914,5.54,2.719l2.473,7.201c.333.974.377,2.024.127,3.022l-2.858,11.467-1.074-13.069-4.4-10.867Z"/>
  <path class="st1" d="M58.546,201.391c-.584,0-1.145-.232-1.558-.645-.413-.413-.645-.973-.645-1.557v-2.703c0-.584.232-1.144.645-1.557.413-.413.973-.645,1.558-.645s1.145.232,1.558.645c.413.413.645.973.645,1.557v2.703c0,.584-.232,1.144-.645,1.557-.413.413-.973.645-1.558.645ZM66.477,192.686h-16.522c-.584,0-1.145-.232-1.558-.645-.413-.413-.645-.973-.645-1.557s.232-1.144.645-1.557c.413-.413.973-.645,1.558-.645h16.522c.584,0,1.145.232,1.558.645.413.413.645.973.645,1.557s-.232,1.144-.645,1.557c-.413.413-.973.645-1.558.645Z"/>
  <path class="st1" d="M94.813,195.583h-15.663c-.584,0-1.145-.232-1.558-.645-.413-.413-.645-.973-.645-1.557s.232-1.144.645-1.557c.413-.413.973-.645,1.558-.645h15.663c.584,0,1.145.232,1.558.645.413.413.645.973.645,1.557s-.232,1.144-.645,1.557c-.413.413-.973.645-1.558.645Z"/>
  <path class="st4" d="M77.337,172.257c2.021,2.02,5.54,7.602,4.086,9.05-1.454,1.448-6.058.143-8.063-1.877-2.005-2.021-2.671-4.746-1.217-6.193,2.979,1.227,3.172-3.001,5.193-.98"/>
  <path class="st1" d="M66.278,201.71h-16.808c-.301,0-.599-.061-.876-.18-.277-.12-.526-.294-.732-.514-.206-.22-.365-.48-.466-.764s-.143-.586-.123-.887l1.696-25.549c.016-.215.062-.426.138-.628l6.68-17.798c.225-.519.64-.931,1.161-1.152.521-.221,1.106-.234,1.636-.035.529.199.962.594,1.208,1.103.246.509.287,1.093.114,1.631l-6.565,17.479-1.52,22.901h12.303l.314-14.203c.008-.291.073-.577.193-.843l3.855-8.604c.108-.278.271-.531.48-.744.209-.212.459-.381.734-.494.276-.114.572-.17.87-.166.298.004.592.069.865.19.272.122.517.297.72.515.203.219.359.477.459.757.1.281.142.579.124.877-.019.297-.097.588-.231.854l-3.651,8.197-.352,15.91c-.014.578-.256,1.128-.672,1.529-.416.402-.974.624-1.553.618Z"/>
  <path class="st0" d="M78.998,188.977h-11.362v6.804h11.362v-6.804Z"/>
  <path class="st1" d="M79.006,197.984h-11.361c-.584,0-1.145-.232-1.558-.645-.413-.413-.645-.974-.645-1.558v-6.804c0-.584.232-1.144.645-1.557.413-.413.973-.645,1.558-.645h11.361c.584,0,1.145.232,1.558.645.413.413.645.973.645,1.557v6.81c-.002.583-.234,1.142-.647,1.554-.413.411-.972.643-1.556.643ZM69.842,193.578h6.961v-2.411h-6.961v2.411Z"/>
  <path class="st1" d="M95.191,203.818h-16.808c-.307.001-.61-.062-.891-.185-.281-.122-.533-.303-.741-.529-.207-.226-.365-.492-.463-.783-.098-.29-.135-.598-.107-.903l1.922-20.744-3.855-8.747c-.207-.531-.2-1.121.018-1.646.219-.526.633-.946,1.155-1.174.522-.227,1.112-.243,1.646-.045.534.199.97.596,1.217,1.109l4.048,9.265c.154.345.213.725.171,1.101l-1.746,18.91h12.501l3.629-23.672c.032-.296.124-.582.269-.841.146-.26.342-.487.578-.668.236-.181.506-.313.794-.387.288-.074.588-.089.882-.044.294.045.576.149.829.306.253.157.471.363.642.607.171.243.29.519.352.81.061.291.063.591.005.883l-2.572,17.165c.106-.006.213-.006.319,0h2.803c.139-.449.419-.841.797-1.12.379-.279.836-.429,1.306-.429s.928.15,1.306.429c.379.279.658.671.797,1.12h2.699c-.408-32.221-9.72-40.908-9.82-40.991-.435-.385-.701-.926-.739-1.505-.038-.579.154-1.151.535-1.589.378-.433.91-.702,1.483-.748.573-.046,1.142.133,1.584.5.463.397,11.367,10.036,11.367,46.529,0,.584-.232,1.144-.645,1.557-.413.413-.973.645-1.558.645h-11.94c-.331,0-.659-.073-.958-.214l-.639,4.184c-.085.515-.35.983-.749,1.321s-.904.523-1.427.523h0ZM72.749,196.915c-.584,0-1.145-.232-1.558-.645-.413-.413-.645-.973-.645-1.557v-.479c0-.584.232-1.144.645-1.557s.973-.645,1.558-.645,1.145.232,1.558.645c.413.413.645.973.645,1.557v.49c-.003.582-.236,1.14-.649,1.55-.413.411-.972.641-1.554.641h0Z"/>
</svg>