<svg width="64" height="50" viewBox="0 0 64 50" fill="none" xmlns="http://www.w3.org/2000/svg">
<g clip-path="url(#clip0_1_70)">
<path fill-rule="evenodd" clip-rule="evenodd" d="M26.525 37.81L26.535 49.64L38.165 37.81H26.525Z" fill="#004B60"/>
<path fill-rule="evenodd" clip-rule="evenodd" d="M52.265 42.07V49.63H26.535L33.975 42.07H52.265ZM52.265 26.94V34.5H38.165V26.94H52.265ZM52.265 11.82V19.38H38.165V11.82H52.265Z" fill="#388CA2"/>
<path fill-rule="evenodd" clip-rule="evenodd" d="M38.165 0V37.81H0.914978V0H38.165ZM28.855 7.13L19.545 21.31L10.225 7.13L5.96498 10.02L19.545 30.69L33.125 10.02L28.865 7.13H28.855Z" fill="#388CA2"/>
<path d="M61.935 42.57C62.505 42.9 62.945 43.35 63.265 43.92C63.585 44.49 63.745 45.14 63.745 45.85C63.745 46.56 63.585 47.21 63.265 47.79C62.945 48.37 62.505 48.82 61.935 49.15C61.365 49.48 60.725 49.64 60.015 49.64C59.305 49.64 58.645 49.48 58.075 49.15C57.505 48.82 57.065 48.37 56.745 47.79C56.425 47.21 56.265 46.56 56.265 45.85C56.265 45.14 56.425 44.49 56.745 43.92C57.065 43.35 57.505 42.9 58.075 42.57C58.645 42.24 59.285 42.08 60.015 42.08C60.745 42.08 61.365 42.24 61.935 42.57ZM62.165 48.05C62.715 47.48 62.985 46.75 62.985 45.85C62.985 44.95 62.705 44.22 62.165 43.65C61.615 43.08 60.895 42.8 60.015 42.8C59.135 42.8 58.395 43.08 57.865 43.65C57.325 44.22 57.065 44.95 57.065 45.85C57.065 46.75 57.335 47.48 57.865 48.05C58.405 48.62 59.115 48.9 60.015 48.9C60.915 48.9 61.615 48.62 62.165 48.05ZM61.445 45.82C61.295 46.02 61.075 46.17 60.805 46.25L61.835 47.78L60.675 47.8L59.785 46.32H59.475V47.8H58.515V43.83H60.285C60.705 43.83 61.035 43.94 61.295 44.16C61.545 44.38 61.675 44.68 61.675 45.07C61.675 45.37 61.595 45.62 61.445 45.82ZM59.475 45.53H60.235C60.375 45.53 60.485 45.49 60.575 45.42C60.665 45.35 60.715 45.24 60.715 45.11C60.715 44.98 60.665 44.87 60.575 44.8C60.485 44.73 60.365 44.7 60.235 44.7H59.475V45.53Z" fill="#388CA2"/>
</g>
<defs>
<clipPath id="clip0_1_70">
<rect width="62.83" height="49.64" fill="white" transform="translate(0.914978)"/>
</clipPath>
</defs>
</svg>
